<svg width="638" height="479" viewBox="0 0 638 479" fill="none" xmlns="http://www.w3.org/2000/svg">
<g opacity="0.4" filter="url(#filter0_f_90_105)">
<path fill-rule="evenodd" clip-rule="evenodd" d="M387.639 110.183C345.653 189.376 272.955 250.586 184.322 272.58C102.274 292.94 22.2711 253.334 -56.7695 220.462C-141.456 185.241 -233.461 156.951 -280.5 79.2628C-335.811 -12.0854 -361.974 -124.312 -324.652 -221.963C-285.366 -324.755 -196.413 -417.793 -84.899 -432.522C17.9049 -446.102 88.6949 -338.647 180.661 -288.71C261.716 -244.697 372.424 -242.312 414.407 -161.401C458.669 -76.0996 431.79 26.9064 387.639 110.183Z" fill="url(#paint0_linear_90_105)"/>
</g>
<defs>
<filter id="filter0_f_90_105" x="-542.104" y="-633.699" width="1179.17" height="1111.85" filterUnits="userSpaceOnUse" color-interpolation-filters="sRGB">
<feFlood flood-opacity="0" result="BackgroundImageFix"/>
<feBlend mode="normal" in="SourceGraphic" in2="BackgroundImageFix" result="shape"/>
<feGaussianBlur stdDeviation="100" result="effect1_foregroundBlur_90_105"/>
</filter>
<linearGradient id="paint0_linear_90_105" x1="392.885" y1="100.58" x2="-320.884" y2="-232.256" gradientUnits="userSpaceOnUse">
<stop stop-color="#0D65D2" stop-opacity="0.75"/>
<stop offset="0.9999" stop-color="#0D65D2" stop-opacity="0.695913"/>
<stop offset="1" stop-color="#0D65D2" stop-opacity="0.5"/>
</linearGradient>
</defs>
</svg>
